<?xml version="1.0" encoding="UTF-8" standalone="no"?>
<!-- Created with Inkscape (http://www.inkscape.org/) -->

<svg
   xmlns:dc="http://purl.org/dc/elements/1.1/"
   xmlns:cc="http://creativecommons.org/ns#"
   xmlns:rdf="http://www.w3.org/1999/02/22-rdf-syntax-ns#"
   xmlns:svg="http://www.w3.org/2000/svg"
   xmlns="http://www.w3.org/2000/svg"
   xmlns:sodipodi="http://sodipodi.sourceforge.net/DTD/sodipodi-0.dtd"
   xmlns:inkscape="http://www.inkscape.org/namespaces/inkscape"
   width="210mm"
   height="297mm"
   viewBox="0 0 210 297"
   version="1.1"
   id="svg4685"
   inkscape:version="0.92.1 r"
   sodipodi:docname="puzzle.svg">
  <defs
     id="defs4679" />
  <sodipodi:namedview
     id="base"
     pagecolor="#ffffff"
     bordercolor="#666666"
     borderopacity="1.0"
     inkscape:pageopacity="0.0"
     inkscape:pageshadow="2"
     inkscape:zoom="0.35"
     inkscape:cx="-158.57143"
     inkscape:cy="560"
     inkscape:document-units="mm"
     inkscape:current-layer="layer1"
     showgrid="false"
     inkscape:window-width="1600"
     inkscape:window-height="845"
     inkscape:window-x="0"
     inkscape:window-y="31"
     inkscape:window-maximized="1" />
  <metadata
     id="metadata4682">
    <rdf:RDF>
      <cc:Work
         rdf:about="">
        <dc:format>image/svg+xml</dc:format>
        <dc:type
           rdf:resource="http://purl.org/dc/dcmitype/StillImage" />
        <dc:title></dc:title>
      </cc:Work>
    </rdf:RDF>
  </metadata>
  <g
     inkscape:label="Layer 1"
     inkscape:groupmode="layer"
     id="layer1">
    <g
       id="g5265"
       inkscape:export-xdpi="102"
       inkscape:export-ydpi="102">
      <rect
         y="55.473206"
         x="1.8898339"
         height="200.32739"
         width="200.32739"
         id="rect5259"
         style="opacity:1;vector-effect:none;fill:#ffffff;fill-opacity:1;stroke:#ffffff;stroke-width:1.38199997;stroke-linecap:round;stroke-linejoin:round;stroke-miterlimit:4;stroke-dasharray:none;stroke-dashoffset:0;stroke-opacity:1" />
      <g
         transform="matrix(0.51383282,0,0,0.51383282,-674.20683,303.40269)"
         id="g4636">
        <path
           style="opacity:1;vector-effect:none;fill:#3771c8;fill-opacity:1;stroke:#333333;stroke-width:12.71931934;stroke-linecap:round;stroke-linejoin:round;stroke-miterlimit:4;stroke-dasharray:none;stroke-dashoffset:0;stroke-opacity:1"
           d="m 1465.2087,-348.53606 c -7.2272,0 -13.0461,5.81886 -13.0461,13.0459 v 57.89567 a 30.438855,30.438855 0 0 1 17.6879,-5.7168 30.438855,30.438855 0 0 1 30.4389,30.43885 30.438855,30.438855 0 0 1 -30.4389,30.43886 30.438855,30.438855 0 0 1 -17.6879,-5.69302 v 57.87664 c 0,7.22703 5.8189,13.0459 13.0461,13.0459 h 57.9955 a 30.438853,30.438853 0 0 1 -5.8121,-17.83053 30.438853,30.438853 0 0 1 30.4388,-30.43885 30.438853,30.438853 0 0 1 30.4389,30.43885 30.438853,30.438853 0 0 1 -5.807,17.83053 h 57.986 c 7.2269,0 13.0459,-5.81887 13.0459,-13.0459 v -57.90518 a 30.438855,30.438855 0 0 0 17.721,5.72156 30.438855,30.438855 0 0 0 30.4389,-30.43886 30.438855,30.438855 0 0 0 -30.4389,-30.43885 30.438855,30.438855 0 0 0 -17.721,5.73583 v -57.9147 c 0,-7.22704 -5.819,-13.0459 -13.0459,-13.0459 z"
           id="rect4513"
           inkscape:connector-curvature="0" />
        <path
           style="opacity:1;vector-effect:none;fill:#ffffff;fill-opacity:1;stroke:#333333;stroke-width:12.71931934;stroke-linecap:round;stroke-linejoin:round;stroke-miterlimit:4;stroke-dasharray:none;stroke-dashoffset:0;stroke-opacity:1"
           d="m 1468.8656,-414.16594 c -5.1103,-5.11033 -13.336,-5.11364 -18.4463,-0.003 l -41.0898,41.08974 a 30.438855,30.438855 0 0 0 -8.5287,-16.90955 30.438855,30.438855 0 0 0 -43.0471,2e-5 30.438855,30.438855 0 0 0 0,43.04704 30.438855,30.438855 0 0 0 16.9095,8.52881 l -41.0864,41.08638 c -5.1102,5.11031 -5.1103,13.33934 0,18.44966 l 40.8846,40.88451 a 30.438855,30.438855 0 0 1 8.448,-16.41829 30.438855,30.438855 0 0 1 43.0471,-2e-5 30.438855,30.438855 0 0 1 0,43.0471 30.438855,30.438855 0 0 1 -16.4083,8.45803 l 40.8711,40.87111 c 5.1103,5.11039 13.3393,5.11028 18.4496,-3e-5 l 116.8425,-116.84245 c 5.1103,-5.1103 5.1071,-13.33591 0,-18.4463 l -40.9754,-40.97543 a 30.438855,30.438855 0 0 1 -8.4815,16.64047 30.438855,30.438855 0 0 1 -43.0471,-6e-5 30.438855,30.438855 0 0 1 0,-43.04702 30.438855,30.438855 0 0 1 16.6269,-8.49512 z"
           id="rect4513-3"
           inkscape:connector-curvature="0" />
      </g>
    </g>
  </g>
</svg>
